<?xml version="1.0" encoding="UTF-8"?>
<svg width="146px" height="32px" viewBox="0 0 146 32" version="1.1" xmlns="http://www.w3.org/2000/svg" xmlns:xlink="http://www.w3.org/1999/xlink">
    <!-- Generator: Sketch 59 (86127) - https://sketch.com -->
    <title>LOGO</title>
    <desc>Created with Sketch.</desc>
    <g id="商户&amp;服务商_登录" stroke="none" stroke-width="1" fill="none" fill-rule="evenodd">
        <g id="服务商登录" transform="translate(-550.000000, -293.000000)" fill="#FFFFFF">
            <g id="登录" transform="translate(520.000000, 249.000000)">
                <g id="LOGO" transform="translate(30.000000, 40.000000)">
                    <path d="M4.40094113,28.174015 C3.4536434,29.123782 3.4536434,30.6646509 4.40094113,31.6149739 C5.34879348,32.5647408 6.88510185,32.5647408 7.8329542,31.6149739 L12.3132065,27.1224874 C12.6825861,26.847789 13.2050419,26.8744803 13.5405894,27.2103464 C13.9088597,27.5801327 13.9188429,28.1890289 13.550018,28.5582592 L10.2699719,31.8468549 C9.32267415,32.7971779 9.32267415,34.3374908 10.2699719,35.2872578 C11.2178242,36.2375807 12.7541326,36.2375807 13.7019849,35.2872578 L22.8449609,26.1204499 C23.2132312,25.7512197 23.8111159,25.7512197 24.1793862,26.1204499 C24.5482111,26.4902362 24.5482111,27.0891232 24.1793862,27.4583534 L23.6153336,28.0244323 C22.6674813,28.9747553 22.6674813,30.5150682 23.6153336,31.4648351 C24.5626313,32.4151581 26.0994943,32.4151581 27.0467921,31.4648351 L30.8814621,27.6201697 C31.8293145,26.6704028 31.8293145,25.1300899 30.8814621,24.1797669 C29.9341644,23.23 28.3973014,23.23 27.4500037,24.1797669 L26.8942705,24.7369487 C26.5254455,25.106735 25.9281155,25.106735 25.5592906,24.7369487 C25.1910203,24.3677184 25.1910203,23.7682754 25.5592906,23.3990451 L31.2891107,17.6542898 C32.2369631,16.7045228 32.2369631,15.1636539 31.2891107,14.213887 C30.3412584,13.263564 28.80495,13.263564 27.8576523,14.213887 L16.2649023,25.8368544 C15.8960773,26.2060846 15.2887641,26.1966314 14.9199392,25.8268451 C14.5849463,25.4909791 14.5583243,24.9671615 14.8323086,24.5968191 L22.2071434,17.2027612 C23.1544411,16.2529943 23.1544411,14.7121254 22.2071434,13.7623584 C21.259291,12.8120354 19.7229827,12.8120354 18.7751303,13.7623584 L17.3796964,15.1614296 C17.0186362,15.3727361 16.5477605,15.3271384 16.2382803,15.0162954 C15.8694554,14.6470652 15.8600268,14.038169 16.2282971,13.6683827 L21.7296122,8.152728 C22.6774645,7.20296107 22.6774645,5.66264819 21.7296122,4.7123252 C20.7823144,3.76255827 19.2454514,3.76255827 18.2981537,4.7123252 L9.15462309,13.8791331 C8.78635278,14.2489194 8.18846815,14.2489194 7.82019784,13.8791331 C7.45192753,13.5099028 7.45192753,12.9110158 7.82019784,12.5412295 L10.3864429,9.96829534 C11.3342953,9.01852841 11.3342953,7.47765947 10.3864429,6.52789254 C9.43914519,5.57756954 7.90228219,5.57756954 6.95498447,6.52789254 L1.1181219,12.3794133 C0.17082418,13.3297363 0.17082418,14.8700491 1.1181219,15.8203721 C2.06597425,16.7701391 3.60228262,16.7701391 4.55013497,15.8203721 L5.10586818,15.2626343 C5.47413849,14.8934041 6.0714685,14.8934041 6.44029343,15.2626343 C6.80856374,15.6324206 6.80856374,16.2313076 6.44029343,16.6005378 L0.710473294,22.3452932 C-0.236824431,23.2956162 -0.236824431,24.835929 0.710473294,25.785696 C1.65832564,26.736019 3.19463401,26.736019 4.14248636,25.785696 L13.5139674,16.3903435 C13.8822377,16.0205572 14.4901056,16.0305665 14.8583759,16.3997967 C15.1684107,16.7106396 15.2138899,17.1821867 15.0031328,17.544188 L4.40094113,28.174015 Z" id="Clip-8备份"></path>
                    <text id="FlashEx" font-family="PingFangSC-Semibold, PingFang SC" font-size="28" font-weight="500">
                        <tspan x="42.708" y="30">FlashEx</tspan>
                    </text>
                </g>
            </g>
        </g>
    </g>
</svg>